Coordinates
version=1
nRows=24
nColumns=24
inDegrees=yes

Units are S.I. units (second, meters, Newtons, ...)
Angles are in degrees.

endheader
time	pelvis_tilt	pelvis_list	pelvis_rotation	pelvis_tx	pelvis_ty	pelvis_tz	hip_flexion_r	hip_adduction_r	hip_rotation_r	knee_angle_r	ankle_angle_r	subtalar_angle_r	mtp_angle_r	hip_flexion_l	hip_adduction_l	hip_rotation_l	knee_angle_l	ankle_angle_l	subtalar_angle_l	mtp_angle_l	lumbar_extension	lumbar_bending	lumbar_rotation
      4.17000000	     -2.44868193	     -0.36516680	      2.65055449	      1.63001814	      0.78133502	     -0.32150525	     23.43776529	      0.00457994	     -4.79365153	     -4.68174238	      1.88249697	      1.08360085	      0.00000000	    -20.57654929	     -1.11291828	      7.02516280	     -9.32256304	      0.51393933	     -5.26224053	      0.00000000	     -9.68976509	      3.02373986	     -7.95845219
      4.18000000	     -2.06192014	     -0.68538505	      2.07532071	      1.64642174	      0.78114690	     -0.32032712	     23.30951062	      0.72437810	     -3.19946357	     -6.93004686	      0.49440623	     -1.30647833	      0.00000000	    -20.30924377	     -1.34599465	      5.63219015	    -12.47204503	     -1.37518861	     -4.00776983	      0.00000000	    -10.01820146	      3.53803753	     -7.33300175
      4.19000000	     -1.64438954	     -1.02353269	      1.47237537	      1.66272574	      0.78146910	     -0.31909912	     23.16330368	      1.47268243	     -1.97267118	     -9.51713379	     -0.52665696	     -3.18998885	      0.00000000	    -19.68873983	     -1.62673744	      4.10355847	    -16.13373084	     -3.96196477	     -2.83674005	      0.00000000	    -10.41274311	      4.05322956	     -6.68896089
      4.20000000	     -1.21853667	     -1.33308364	      0.93066246	      1.67888481	      0.78222818	     -0.31794190	     22.95225109	      2.15659237	     -1.07919658	    -12.21423985	     -0.84115344	     -4.48304110	      0.00000000	    -18.70596344	     -1.94862225	      2.65474821	    -20.20605333	     -7.29620230	     -1.88878625	      0.00000000	    -10.83782765	      4.52233840	     -6.10535040
      4.21000000	     -0.75969542	     -1.60355322	      0.53340791	      1.69486072	      0.78341443	     -0.31698970	     22.56858310	      2.71375208	     -0.57765577	    -14.77262632	     -0.37697902	     -5.10441091	      0.00000000	    -17.42781847	     -2.31211666	      1.47701680	    -24.53408802	    -11.22590530	     -1.36177682	      0.00000000	    -11.31246269	      4.94287103	     -5.63717377
      4.22000000	     -0.32933660	     -1.83246273	      0.37278225	      1.71059261	      0.78492716	     -0.31628967	     21.94944329	      3.15182629	     -0.13160162	    -16.87883385	      0.46784523	     -5.71222766	      0.00000000	    -15.79343504	     -2.76213337	      0.53476053	    -29.04663450	    -15.17861363	     -0.80138968	      0.00000000	    -11.74889408	      5.31321120	     -5.40908382
      4.23000000	      0.06300021	     -2.03263436	      0.45034741	      1.72607120	      0.78671038	     -0.31585474	     21.10115569	      3.47766538	      0.14036657	    -18.47715159	      1.64312548	     -6.18905741	      0.00000000	    -13.88717269	     -3.26436075	     -0.08898269	    -33.54352163	    -18.70797977	     -0.44064205	      0.00000000	    -12.12514329	      5.64706554	     -5.37302033
      4.24000000	      0.37743953	     -2.18206981	      0.78139953	      1.74128116	      0.78869571	     -0.31572375	     20.07350153	      3.65094823	      0.11868856	    -19.54644461	      3.04912653	     -6.43948039	      0.00000000	    -11.73402561	     -3.74896037	     -0.37561563	    -37.88687958	    -21.32160693	     -0.33035057	      0.00000000	    -12.39658552	      5.92590488	     -5.53493289
      4.25000000	      0.61018851	     -2.23859521	      1.32550633	      1.75621769	      0.79085454	     -0.31586422	     18.93766282	      3.62568649	     -0.30316660	    -20.20893166	      4.69674083	     -6.14976750	      0.00000000	     -9.41061463	     -4.11662261	     -0.37978980	    -41.92507815	    -22.67323887	     -0.28971853	      0.00000000	    -12.56589775	      6.10018728	     -5.87582516
      4.26000000	      0.82177188	     -2.29407219	      2.00411272	      1.77092557	      0.79324635	     -0.31613206	     17.56533071	      3.58067809	     -0.81904874	    -20.32742276	      6.10240438	     -5.91713811	      0.00000000	     -7.05147577	     -4.46439488	     -0.35248502	    -45.54284555	    -22.67624749	     -0.36290404	      0.00000000	    -12.71159998	      6.25585818	     -6.30199514
      4.27000000	      0.97963058	     -2.26478746	      2.76105586	      1.78542748	      0.79583768	     -0.31649845	     16.05188019	      3.43702522	     -1.46459249	    -20.02659847	      7.31828668	     -5.52674281	      0.00000000	     -4.69328989	     -4.65410709	     -0.29926936	    -48.61113001	    -21.43295838	     -0.55619760	      0.00000000	    -12.79456335	      6.29422484	     -6.81478006
      4.28000000	      1.06571033	     -2.18783729	      3.52884503	      1.79974966	      0.79857232	     -0.31686723	     14.44755450	      3.27095282	     -2.13435083	    -19.35975370	      8.20975487	     -5.23624434	      0.00000000	     -2.35448437	     -4.72665468	     -0.31869446	    -51.06991230	    -19.29656810	     -0.67851438	      0.00000000	    -12.80723038	      6.24636863	     -7.26950606
      4.29000000	      1.10895424	     -2.02661950	      4.25263568	      1.81391563	      0.80143780	     -0.31719340	     12.77891183	      3.04201363	     -2.87417912	    -18.44371829	      8.88044294	     -4.79765129	      0.00000000	     -0.10792159	     -4.64635950	     -0.46910092	    -52.86150607	    -16.58576022	     -0.63505768	      0.00000000	    -12.78424452	      6.06772359	     -7.70403122
      4.30000000	      1.10963597	     -1.77924145	      4.94403812	      1.82795476	      0.80437690	     -0.31750593	     11.05593731	      2.75959574	     -3.58844301	    -17.30815664	      9.26045879	     -4.39119390	      0.00000000	      2.03489657	     -4.40184161	     -0.69229923	    -53.98480877	    -13.71417400	     -0.36447129	      0.00000000	    -12.71918418	      5.77082098	     -8.17857337
      4.31000000	      1.04696284	     -1.49656429	      5.47590510	      1.84190026	      0.80721029	     -0.31766448	      9.43249003	      2.44585303	     -4.50224684	    -16.20001279	      9.79030311	     -3.39300837	      0.00000000	      4.07496871	     -4.08032552	     -1.13135436	    -54.48450232	    -10.82192101	      0.18277241	      0.00000000	    -12.59631796	      5.37704881	     -8.44638975
      4.32000000	      0.95262686	     -1.18225885	      5.92191653	      1.85574363	      0.80993799	     -0.31773987	      7.80204730	      2.16196628	     -5.13806386	    -14.97684328	      9.83336670	     -2.87142385	      0.00000000	      5.98835150	     -3.68105382	     -1.64607238	    -54.39100327	     -8.14858368	      1.01359801	      0.00000000	    -12.45359087	      4.92282466	     -8.67791438
      4.33000000	      0.81513711	     -0.89372346	      6.27464251	      1.86949145	      0.81240483	     -0.31778887	      6.28565454	      1.89919203	     -5.87710804	    -13.84519802	      9.97195780	     -2.01928764	      0.00000000	      7.79755994	     -3.24710134	     -2.17225344	    -53.77682532	     -5.74244130	      1.93623900	      0.00000000	    -12.27614499	      4.48219859	     -8.76311808
      4.34000000	      0.66469362	     -0.61115486	      6.54241449	      1.88314720	      0.81458659	     -0.31782210	      4.85654290	      1.64480834	     -6.60700197	    -12.82391362	     10.06429865	     -1.07882121	      0.00000000	      9.46764724	     -2.77785841	     -2.70925958	    -52.67177276	     -3.67386157	      2.79890383	      0.00000000	    -12.10282921	      4.04080655	     -8.82478400
      4.35000000	      0.51901114	     -0.38798364	      6.72093364	      1.89671334	      0.81642634	     -0.31786043	      3.51381847	      1.45098775	     -7.29360378	    -11.93884815	     10.13961800	     -0.07084494	      0.00000000	     10.99194048	     -2.33610525	     -3.22828489	    -51.12757613	     -1.92329899	      3.44779623	      0.00000000	    -11.95564968	      3.66657053	     -8.80570870
      4.36000000	      0.40275029	     -0.24067598	      6.81683921	      1.91019527	      0.81790758	     -0.31793306	      2.23530167	      1.33214586	     -7.91758940	    -11.19897352	     10.21059054	      0.97237734	      0.00000000	     12.35075708	     -1.94235657	     -3.69181541	    -49.17658745	     -0.49644465	      3.73961540	      0.00000000	    -11.86339717	      3.38939808	     -8.70824326
      4.37000000	      0.33827520	     -0.16976697	      6.83495180	      1.92360503	      0.81903153	     -0.31806193	      0.98765219	      1.29293927	     -8.41653154	    -10.59147317	     10.25159764	      1.94680929	      0.00000000	     13.52049551	     -1.60346193	     -4.08125447	    -46.83619451	      0.58313655	      3.52729427	      0.00000000	    -11.84953715	      3.21990859	     -8.57240804
      4.38000000	      0.30522238	     -0.22180349	      6.77812716	      1.93695659	      0.81975407	     -0.31823569	     -0.23410812	      1.39911016	     -8.61767588	    -10.05788051	     10.20786885	      2.58888699	      0.00000000	     14.53416741	     -1.35645476	     -4.30595477	    -44.14124010	      1.35236455	      2.87377156	      0.00000000	    -11.88674626	      3.20086119	     -8.27596066
      4.39000000	      0.33162677	     -0.39858495	      6.66610748	      1.95027515	      0.82009582	     -0.31849909	     -1.43845866	      1.62408119	     -8.81625967	     -9.64656475	     10.19205651	      3.28965826	      0.00000000	     15.36691599	     -1.23222240	     -4.39936415	    -41.11607370	      1.83296319	      1.78453002	      0.00000000	    -11.99288696	      3.35512069	     -7.95451114
      4.40000000	      0.41264950	     -0.66712804	      6.50280864	      1.96361356	      0.82007284	     -0.31884995	     -2.64684537	      1.94040386	     -8.98424827	     -9.32530091	     10.21423241	      3.96349268	      0.00000000	     16.00179180	     -1.19031198	     -4.31100597	    -37.75485726	      2.01196230	      0.32053537	      0.00000000	    -12.15709484	      3.63692148	     -7.58552366
